<svg width="126" height="44" viewBox="0 0 126 44" fill="none" xmlns="http://www.w3.org/2000/svg">
<g clip-path="url(#clip0)">
<path d="M110.328 31.5618C104.529 32.9611 99.3577 33.1166 96.2234 33.1166C97.9473 31.5618 99.8279 29.3852 101.395 26.8975C104.529 21.6113 104.529 16.7915 104.216 13.8375C99.5145 15.0813 93.2458 17.2579 87.2906 20.9894C84.313 22.8551 81.9622 24.5654 80.0816 26.2756C79.7682 23.9435 79.298 21.4558 78.201 18.8127C74.91 10.106 68.0145 4.0424 62.9995 0.155477C62.9995 0.155477 62.9995 0.155477 62.9995 0C62.9995 0 62.9995 0 62.9995 0.155477C57.9846 3.88693 51.2458 10.106 47.798 18.8127C46.701 21.4558 46.2309 24.0989 45.9174 26.2756C44.0368 24.5654 41.6861 22.8551 38.7085 20.9894C32.5965 17.4134 26.3279 15.2367 21.7831 13.8375C21.4697 16.7915 21.4697 21.6113 24.604 26.8975C26.1712 29.3852 28.0518 31.5618 29.7757 33.1166C26.6413 33.2721 21.4697 33.1166 15.6712 31.5618C7.05177 29.3852 2.03685 25.6537 0.15625 23.788C0.626399 25.6537 2.19356 31.7173 10.1861 36.5371C10.9697 37.0035 21.313 43.0671 34.1637 42.2898C39.8055 41.9788 42.0001 43.0671 50.933 42.2898C56.1046 41.8233 59.5524 41.9788 62.6867 41.9788C65.821 41.9788 64.0972 41.9788 64.2539 41.9788C64.2539 41.9788 66.4479 41.9788 66.6046 41.9788C69.739 41.8233 72.8733 41.9788 78.201 41.9788C83.5288 41.9788 86.6637 41.9788 92.4622 42.2898C105.313 43.0671 115.656 37.0035 116.44 36.5371C124.276 31.7173 126 25.8092 126.47 23.788C123.962 25.6537 118.947 29.5406 110.328 31.5618Z" fill="#fff"/>
<path d="M63.4702 35.7597C67.3651 35.7597 70.5225 32.6273 70.5225 28.7633C70.5225 24.8992 67.3651 21.7668 63.4702 21.7668C59.5754 21.7668 56.418 24.8992 56.418 28.7633C56.418 32.6273 59.5754 35.7597 63.4702 35.7597Z" fill="#D35BBC"/>
</g>
<defs>
<clipPath id="clip0">
<rect width="126" height="44" fill="white"/>
</clipPath>
</defs>
</svg>
